<?xml version="1.0" encoding="UTF-8" standalone="no"?>
<!-- Created with Inkscape (http://www.inkscape.org/) -->

<svg
   version="1.1"
   id="svg1341"
   xml:space="preserve"
   width="682.66669"
   height="682.66669"
   viewBox="0 0 682.66669 682.66669"
   xmlns="http://www.w3.org/2000/svg"
   xmlns:svg="http://www.w3.org/2000/svg"><defs
     id="defs1345"><clipPath
       clipPathUnits="userSpaceOnUse"
       id="clipPath1355"><path
         d="M 0,512 H 512 V 0 H 0 Z"
         id="path1353" /></clipPath></defs><g
     id="g1347"
     transform="matrix(1.3333333,0,0,-1.3333333,0,682.66667)"><g
       id="g1349"><g
         id="g1351"
         clip-path="url(#clipPath1355)"><g
           id="g1357"
           transform="translate(272.7217,423.3584)"><path
             d="m 0,0 89.704,-89.705 c 7.502,-7.501 11.716,-17.675 11.716,-28.284 v -250.369 c 0,-22.092 -17.908,-40 -40,-40 h -279.142 c -22.091,0 -40,17.908 -40,40 v 340.074 c 0,22.091 17.909,40 40,40 H -28.285 C -17.676,11.716 -7.502,7.501 0,0 Z"
             style="fill:none;stroke:#000000;stroke-width:30;stroke-linecap:round;stroke-linejoin:round;stroke-miterlimit:10;stroke-dasharray:none;stroke-opacity:1"
             id="path1359" /></g><g
           id="g1361"
           transform="translate(321.1094,459.8232)"><path
             d="m 0,0 77.781,-77.782 -42.426,-42.426 -77.782,77.782 z"
             style="fill:none;stroke:#000000;stroke-width:30;stroke-linecap:round;stroke-linejoin:round;stroke-miterlimit:10;stroke-dasharray:none;stroke-opacity:1"
             id="path1363" /></g><g
           id="g1365"
           transform="translate(104.5703,375.0732)"><path
             d="m 0,0 h 131.582 l 59.141,-59.141 H 0 c -16.331,0 -29.57,13.239 -29.57,29.571 C -29.57,-13.239 -16.331,0 0,0 Z"
             style="fill:none;stroke:#000000;stroke-width:30;stroke-linecap:round;stroke-linejoin:round;stroke-miterlimit:10;stroke-dasharray:none;stroke-opacity:1"
             id="path1367" /></g><g
           id="g1369"
           transform="translate(104.5703,375.0732)"><path
             d="m 0,0 h 131.582 l 59.141,-59.141 H 0 c -16.331,0 -29.57,13.239 -29.57,29.571 C -29.57,-13.239 -16.331,0 0,0 Z"
             style="fill:none;stroke:#000000;stroke-width:30;stroke-linecap:round;stroke-linejoin:round;stroke-miterlimit:10;stroke-dasharray:none;stroke-opacity:1"
             id="path1371" /></g><g
           id="g1373"
           transform="translate(465,497)"><path
             d="M 0,0 V -47.073 H -33.573 L -83.784,-97.284 -126.21,-54.857 -71.353,0 Z"
             style="fill:none;stroke:#000000;stroke-width:30;stroke-linecap:round;stroke-linejoin:round;stroke-miterlimit:10;stroke-dasharray:none;stroke-opacity:1"
             id="path1375" /></g><g
           id="g1377"
           transform="translate(497,287)"><path
             d="m 0,0 c 0,-16.568 -13.432,-30 -30,-30 -16.568,0 -30,13.432 -30,30 0,16.568 30,54 30,54 0,0 30,-37.432 30,-54 z"
             style="fill:none;stroke:#000000;stroke-width:30;stroke-linecap:round;stroke-linejoin:round;stroke-miterlimit:10;stroke-dasharray:none;stroke-opacity:1"
             id="path1379" /></g><path
           d="m 145.106,214.931 h 98.93 V 116 h -98.93 z"
           style="fill:none;stroke:#000000;stroke-width:30;stroke-linecap:round;stroke-linejoin:round;stroke-miterlimit:10;stroke-dasharray:none;stroke-opacity:1"
           id="path1381" /><g
           id="g1383"
           transform="translate(244.0356,214.9307)"><path
             d="M 0,0 30,30"
             style="fill:none;stroke:#000000;stroke-width:30;stroke-linecap:round;stroke-linejoin:round;stroke-miterlimit:10;stroke-dasharray:none;stroke-opacity:1"
             id="path1385" /></g><g
           id="g1387"
           transform="translate(145.106,214.9307)"><path
             d="M 0,0 -30,30"
             style="fill:none;stroke:#000000;stroke-width:30;stroke-linecap:round;stroke-linejoin:round;stroke-miterlimit:10;stroke-dasharray:none;stroke-opacity:1"
             id="path1389" /></g><g
           id="g1391"
           transform="translate(244.0356,116)"><path
             d="M 0,0 30,-30"
             style="fill:none;stroke:#000000;stroke-width:30;stroke-linecap:round;stroke-linejoin:round;stroke-miterlimit:10;stroke-dasharray:none;stroke-opacity:1"
             id="path1393" /></g><g
           id="g1395"
           transform="translate(145.106,116)"><path
             d="M 0,0 -30,-30"
             style="fill:none;stroke:#000000;stroke-width:30;stroke-linecap:round;stroke-linejoin:round;stroke-miterlimit:10;stroke-dasharray:none;stroke-opacity:1"
             id="path1397" /></g></g></g></g></svg>
