<svg width="48" height="48" viewBox="0 0 48 48" fill="none" xmlns="http://www.w3.org/2000/svg">
<g clip-path="url(#clip0_233_11672)">
<path d="M17 18C17.2652 18 17.5196 18.1054 17.7071 18.2929C17.8946 18.4804 18 18.7348 18 19C19.5711 18.9977 21.097 19.5263 22.33 20.5H24.5C25.832 20.5 27.03 21.079 27.853 21.999L31 22C31.9453 21.9997 32.8712 22.2674 33.6705 22.772C34.4698 23.2767 35.1097 23.9975 35.516 24.851C33.151 27.972 29.322 30 25 30C22.21 30 19.85 29.397 17.94 28.342C17.87 28.5351 17.7422 28.7018 17.574 28.8196C17.4058 28.9374 17.2053 29.0003 17 29H14C13.7348 29 13.4804 28.8946 13.2929 28.7071C13.1054 28.5196 13 28.2652 13 28V19C13 18.7348 13.1054 18.4804 13.2929 18.2929C13.4804 18.1054 13.7348 18 14 18H17ZM18.001 21L18 26.021L18.045 26.054C19.84 27.314 22.178 28 25 28C28.004 28 30.799 26.844 32.835 24.87L32.968 24.737L32.848 24.637C32.3758 24.2672 31.8034 24.0477 31.205 24.007L31 24L28.888 23.999C28.961 24.321 29 24.656 29 25V26H20V24L26.79 23.999L26.756 23.921C26.5644 23.5205 26.2696 23.1783 25.9019 22.9295C25.5343 22.6806 25.107 22.5341 24.664 22.505L24.5 22.5H21.57C21.1053 22.0247 20.5503 21.6472 19.9375 21.3896C19.3248 21.132 18.6657 20.9995 18.001 21ZM16 20H15V27H16V20Z" fill="#4B6EB9"/>
</g>
<defs>
<clipPath id="clip0_233_11672">
<rect width="24" height="24" fill="white" transform="translate(12 12)"/>
</clipPath>
</defs>
</svg>
